# xmcd
#
# Track frame offsets:
#	150
#	15735
#	35251
#	52822
#	70836
#	84065
#	97361
#	114262
#	130031
#	143305
#	158099
#	174288
#	189500
#
# Disc length: 2732 seconds
#
# Revision: 1
# Processed by: cddbd v1.5.2PL0 Copyright (c) Steve Scherf et al.
# Submitted via: audiograbber 1.83.01
#
DISCID=930aaa0d
DTITLE=Catherine Lewans - Kickin' Up Dust
DYEAR=2009
DGENRE=Country
TTITLE0=I'm Home Again
TTITLE1=Those Days
TTITLE2=Caught Up In The Moment
TTITLE3=I Miss You Already
TTITLE4=What Are You Waiting For
TTITLE5=If We Did It Anyway
TTITLE6=I Won't Forget About Us
TTITLE7=Never Again On Our Own
TTITLE8=How Happy You Make Me
TTITLE9=That's How I Know
TTITLE10=Girl You Couldn't Get
TTITLE11=Walk Away
TTITLE12=Home
EXTD=
EXTT0=words and music by Catherine Lewans
EXTT1=words and music by Catherine Lewans
EXTT2=words and music by Catherine Lewans
EXTT3=words and music by Catherine Lewans
EXTT4=words and music by Catherine Lewans
EXTT5=words and music by Catherine Lewans
EXTT6=words and music by Catherine Lewans
EXTT7=words and music by Catherine Lewans
EXTT8=words and music by Catherine Lewans
EXTT9=words and music by Catherine Lewans
EXTT10=words and music by Catherine Lewans
EXTT11=words and music by Catherine Lewans
EXTT12=words and music by Catherine Lewans
PLAYORDER=
